<svg width="40" height="40" viewBox="0 0 40 40" fill="none" xmlns="http://www.w3.org/2000/svg">
<path d="M20 2.40002C10.2892 2.40002 2.39999 10.2893 2.39999 20C2.39999 28.8153 8.90202 36.1107 17.3703 37.3828L18.2891 37.5219V23.6531H14.1312V20.8375H18.2891V17.0985C18.2891 14.796 18.8416 13.2796 19.7562 12.3281C20.6709 11.3767 22.0224 10.8969 23.9031 10.8969C25.407 10.8969 25.992 10.988 26.5484 11.0563V13.361H24.5906C23.4798 13.361 22.5684 13.9807 22.0953 14.8063C21.6223 15.6318 21.475 16.6175 21.475 17.6219V20.836H26.3734L25.9375 23.6516H21.475V37.5438L22.3828 37.4203C30.9715 36.2555 37.6 28.9015 37.6 20C37.6 10.2893 29.7107 2.40002 20 2.40002ZM20 4.00002C28.846 4.00002 36 11.154 36 20C36 27.7839 30.4286 34.1855 23.075 35.6266V25.2516H27.3094L28.2391 19.236H23.075V17.6219C23.075 16.7919 23.2269 16.0483 23.4828 15.6016C23.7388 15.1549 23.9855 14.961 24.5906 14.961H28.1484V9.60784L27.4547 9.51409C26.9748 9.44916 25.8794 9.2969 23.9031 9.2969C21.7406 9.2969 19.8844 9.88598 18.6031 11.2188C17.3218 12.5516 16.6891 14.5361 16.6891 17.0985V19.2375H12.5312V25.2531H16.6891V35.5766C9.45359 34.0439 3.99999 27.6996 3.99999 20C3.99999 11.154 11.1539 4.00002 20 4.00002Z" fill="#FBE3B7"/>
</svg>
