<svg width="40" height="40" viewBox="0 0 40 40" fill="none" xmlns="http://www.w3.org/2000/svg">
<path d="M12.8 2.40002C7.06599 2.40002 2.4 7.06601 2.4 12.8V27.2C2.4 32.934 7.06599 37.6 12.8 37.6H27.2C32.934 37.6 37.6 32.934 37.6 27.2V12.8C37.6 7.06601 32.934 2.40002 27.2 2.40002H12.8ZM12.8 4.00002H27.2C32.0692 4.00002 36 7.93084 36 12.8V27.2C36 32.0692 32.0692 36 27.2 36H12.8C7.93081 36 4 32.0692 4 27.2V12.8C4 7.93084 7.93081 4.00002 12.8 4.00002ZM29.6 8.80002C29.1757 8.80002 28.7687 8.9686 28.4686 9.26865C28.1686 9.56871 28 9.97568 28 10.4C28 10.8244 28.1686 11.2313 28.4686 11.5314C28.7687 11.8315 29.1757 12 29.6 12C30.0243 12 30.4313 11.8315 30.7314 11.5314C31.0314 11.2313 31.2 10.8244 31.2 10.4C31.2 9.97568 31.0314 9.56871 30.7314 9.26865C30.4313 8.9686 30.0243 8.80002 29.6 8.80002ZM20 11.2C15.1494 11.2 11.2 15.1494 11.2 20C11.2 24.8507 15.1494 28.8 20 28.8C24.8506 28.8 28.8 24.8507 28.8 20C28.8 15.1494 24.8506 11.2 20 11.2ZM20 12.8C23.9859 12.8 27.2 16.0141 27.2 20C27.2 23.986 23.9859 27.2 20 27.2C16.0141 27.2 12.8 23.986 12.8 20C12.8 16.0141 16.0141 12.8 20 12.8Z" fill="#FBE3B7"/>
</svg>
