<svg width="300" height="300" viewBox="0 0 300 300" fill="none" xmlns="http://www.w3.org/2000/svg">
<path d="M162.677 154.125C162.308 155.835 161.971 157.96 161.665 160.5L161.315 163.625L160.915 166.675C160.796 167.457 160.818 167.953 160.977 168.163C161.108 168.378 161.552 168.519 162.302 168.588L164.152 168.825L166.002 169.088C167.527 169.303 168.768 169.419 169.727 169.438L169.927 169.425H170.127C170.268 169.441 170.346 169.5 170.365 169.6C170.38 169.7 170.34 169.825 170.24 169.975C170.165 170.107 170.065 170.228 169.94 170.338C169.79 170.463 169.58 170.513 169.315 170.488L167.802 170.388L166.277 170.338C165.043 170.278 164.033 170.169 163.252 170.013C162.318 169.803 161.318 169.866 160.252 170.2C159.202 170.507 158.155 170.575 157.115 170.4L156.715 170.338C156.546 170.328 156.415 170.338 156.315 170.363C155.74 170.519 155.343 170.441 155.127 170.125C154.977 169.925 154.883 169.55 154.852 169C154.658 165.994 154.733 162.469 155.077 158.425L155.565 153.188L156.09 147.913C156.18 147.057 156.305 146.038 156.465 144.863L156.915 141.788C157.29 139.288 157.49 137.25 157.515 135.675C157.53 135.319 157.658 135.119 157.902 135.075C159.077 134.785 160.383 135.232 161.827 136.413C162.583 137.057 163.043 137.894 163.202 138.925C163.258 139.275 163.29 139.735 163.29 140.3L163.277 141L163.302 141.7C163.508 145.135 163.365 148.838 162.865 152.813L162.777 153.6L162.727 153.925L162.677 154.125Z" fill="#EA663F"/>
<path d="M182.273 163.784C182.623 163.778 182.889 163.743 183.073 163.684C183.814 163.478 184.426 163.009 184.911 162.284L185.223 161.734L185.548 161.172C185.689 160.897 185.842 160.54 186.011 160.097L186.423 158.984C186.773 158.084 187.001 157.259 187.111 156.509L187.161 156.009L187.198 155.522L187.248 154.859L187.311 154.197C187.361 153.697 187.342 153.265 187.261 152.897L187.248 152.759L187.236 152.634C187.211 151.853 187.076 151.247 186.836 150.822C186.792 150.722 186.754 150.593 186.723 150.434C186.673 150.253 186.576 149.993 186.436 149.659L186.261 149.259L186.098 148.872C185.964 148.547 185.879 148.268 185.848 148.034L185.786 147.872L185.698 147.722L184.786 146.222C184.617 145.965 184.379 145.818 184.073 145.784C183.689 145.743 183.376 145.756 183.136 145.822L182.898 145.872L182.648 145.884C182.114 145.859 181.586 146.081 181.061 146.547C180.726 146.847 180.336 147.281 179.886 147.847C179.226 148.672 178.804 149.368 178.623 149.934L178.398 150.584L178.198 151.247L178.111 151.584L177.998 151.934L177.923 152.147L177.861 152.359L177.711 153.084L177.598 153.859C177.479 154.893 177.436 155.906 177.461 156.897C177.486 158.065 177.617 159.031 177.861 159.797C178.192 160.915 178.626 161.728 179.161 162.234L179.248 162.309L179.311 162.397C180.061 163.265 181.048 163.728 182.273 163.784ZM188.961 151.609C188.926 151.784 188.926 152.003 188.961 152.259L189.011 152.872L189.061 153.634V155.947C189.042 156.19 189.023 156.409 188.998 156.609L188.836 157.572L188.673 158.547L188.573 159.309L188.448 160.072L188.398 160.334L188.323 160.609C188.014 161.678 187.626 162.722 187.161 163.747C186.886 164.322 186.539 164.865 186.123 165.372C185.754 165.815 185.236 166.218 184.561 166.584C184.161 166.803 183.867 166.984 183.686 167.134C183.501 167.284 183.289 167.403 183.048 167.484L182.348 167.709L181.586 167.909C180.901 168.084 180.186 168.047 179.436 167.797C178.411 167.456 177.564 167.068 176.898 166.634L176.661 166.497L175.861 165.797L175.086 165.097C174.826 164.847 174.529 164.518 174.198 164.109C173.839 163.668 173.551 163.206 173.336 162.722C172.886 161.697 172.551 160.747 172.336 159.872L172.048 158.634C171.948 158.159 171.876 157.747 171.836 157.397L171.798 157.147L171.773 156.909L171.848 155.197L171.961 153.497C172.061 152.59 172.236 151.668 172.486 150.734L173.061 148.722C173.111 148.565 173.192 148.356 173.311 148.097L173.561 147.522C173.836 146.89 174.354 146.053 175.123 145.009C175.764 144.153 176.539 143.528 177.448 143.134C177.798 142.968 178.167 142.853 178.561 142.784L179.323 142.672C179.614 142.615 179.861 142.556 180.061 142.497C180.276 142.406 180.529 142.403 180.823 142.484C181.114 142.559 181.461 142.584 181.861 142.559C182.761 142.509 183.579 142.64 184.323 142.947C184.589 143.047 184.804 143.153 184.973 143.259C185.689 143.743 186.211 144.197 186.536 144.622C187.226 145.522 187.726 146.353 188.036 147.109L188.073 147.222L188.098 147.334C188.173 147.843 188.342 148.453 188.611 149.159C188.692 149.378 188.754 149.665 188.798 150.022L188.848 150.459L188.886 150.909L188.936 151.259L188.961 151.609Z" fill="#EA663F"/>
<path d="M202.754 159.377C202.804 159.452 202.858 159.549 202.917 159.664L203.067 160.002C203.217 160.311 203.336 160.57 203.429 160.777C203.736 161.411 203.998 161.989 204.217 162.514C204.823 164.064 205.129 165.374 205.129 166.439L205.117 166.577C205.023 169.286 202.973 170.567 198.967 170.427C198.483 170.408 197.967 170.367 197.417 170.302L197.242 170.277C195.248 170.052 193.708 169.383 192.617 168.264C191.848 167.514 191.167 166.336 190.567 164.727C190.348 164.152 190.154 163.483 189.979 162.714L189.792 161.714L189.617 160.664L189.542 160.414L189.554 160.327C189.554 160.261 189.561 160.199 189.579 160.139C189.636 159.908 189.854 159.777 190.229 159.752H190.304C190.57 159.761 190.767 159.87 190.892 160.077C190.923 160.152 190.958 160.252 190.992 160.377L191.054 160.514L191.104 160.627C191.245 161.061 191.442 161.674 191.692 162.464L191.954 163.364L192.254 164.289C192.861 166.024 193.733 167.308 194.867 168.139C195.223 168.383 195.595 168.595 195.979 168.777C196.42 168.961 196.823 169.061 197.192 169.077H197.254C198.779 169.095 199.567 168.436 199.617 167.102L199.629 166.877C199.57 164.927 198.161 161.495 195.404 156.577C195.186 156.211 194.836 155.527 194.354 154.527C193.811 153.436 193.27 152.32 192.729 151.177C191.304 148.061 190.448 145.933 190.167 144.789C189.983 143.999 189.904 143.286 189.929 142.652C189.986 141.045 190.704 139.864 192.079 139.114C193.195 138.514 194.567 138.245 196.192 138.302C196.683 138.32 197.195 138.364 197.729 138.439C198.611 138.574 199.348 138.949 199.942 139.564C201.173 140.824 201.892 142.539 202.092 144.714L202.117 144.789V144.889C202.117 144.924 202.117 144.958 202.117 144.989C202.117 145.024 202.111 145.058 202.104 145.089C202.029 145.264 201.879 145.349 201.654 145.339H201.617C201.483 145.333 201.383 145.27 201.317 145.152C201.292 145.12 201.273 145.064 201.267 144.989L201.229 144.902V144.839C201.161 144.649 201.095 144.402 201.029 144.102L200.879 143.364C200.729 142.789 200.554 142.314 200.354 141.939C200.145 141.558 199.867 141.136 199.517 140.677C198.792 139.902 197.845 139.458 196.679 139.339C196.545 139.333 196.411 139.324 196.279 139.314C196.011 139.308 195.748 139.32 195.492 139.352C195.358 139.37 195.223 139.386 195.092 139.402C195.042 139.411 194.995 139.42 194.954 139.427L194.904 139.439H194.867C194.367 139.589 193.998 139.864 193.767 140.264C193.658 140.439 193.598 140.627 193.592 140.827C193.592 141.011 193.636 141.195 193.729 141.377L194.154 142.064L194.579 142.764C194.904 143.314 195.167 143.777 195.367 144.152C195.617 144.677 195.945 145.383 196.354 146.264L196.854 147.314L197.354 148.377L199.379 152.502L201.442 156.652L202.104 158.014C202.37 158.549 202.586 159.002 202.754 159.377Z" fill="#EA663F"/>
<path d="M142.936 199.083C142.436 200.176 141.964 201.433 141.524 202.858L140.536 206.645L139.874 209.533C139.589 210.617 139.299 211.567 138.999 212.383L138.749 213.245C138.639 213.695 138.814 213.951 139.274 214.008C139.624 214.058 139.977 214.07 140.336 214.045L144.261 213.683C145.093 213.601 145.464 213.117 145.374 212.233L145.174 210.883L144.511 207.445L144.024 204.545L143.511 201.595L143.274 200.37L142.936 199.083ZM118.199 240.945L118.411 239.62C118.461 239.08 118.568 238.47 118.736 237.795C118.936 237.114 119.08 236.42 119.174 235.72C119.349 233.789 119.936 231.014 120.936 227.395L121.974 223.245L123.099 218.483L124.224 213.758L125.124 210.658L126.261 205.783L127.449 200.87L128.136 198.233L128.849 195.57L129.511 193.108L130.211 190.645C130.743 188.689 131.114 187.03 131.324 185.67L131.574 184.733L131.874 183.77L133.136 178.758C133.318 178.008 133.702 177.576 134.286 177.458C135.118 177.258 135.861 176.767 136.511 175.983L136.799 175.683L137.086 175.445C137.418 175.189 137.693 175.183 137.911 175.433C138.161 175.658 138.536 175.908 139.036 176.183L139.661 176.508L140.174 176.92C140.649 177.339 141.249 177.608 141.974 177.733C143.749 178.001 144.936 179.176 145.536 181.258C146.318 183.917 147.055 187.714 147.749 192.645L148.199 195.495L148.561 198.345L148.799 199.57L149.061 200.77L149.536 203.22L149.974 205.708C150.355 207.733 150.618 209.392 150.761 210.683C150.902 211.717 151.168 212.795 151.561 213.92L151.949 215.42L152.249 216.895L153.599 222.22L153.786 222.745L153.836 223.233C153.786 224.058 153.886 224.983 154.136 226.008L154.461 227.283L154.874 228.608C155.205 229.701 155.555 230.98 155.924 232.445L156.774 236.333C157.049 237.551 157.393 238.87 157.811 240.295C158.043 241.145 158.174 242.039 158.199 242.983C158.199 243.364 158.143 243.77 158.036 244.195C157.761 245.201 157.086 245.72 156.011 245.745C155.543 245.761 155.211 245.576 155.011 245.195L154.224 243.733L153.424 242.27C152.774 241.111 152.318 240.092 152.061 239.208L150.911 235.758L149.799 232.32C148.989 229.68 148.361 227.339 147.911 225.295L147.249 222.17L146.599 219.033L146.536 218.608L146.436 218.133C146.318 217.626 145.952 217.376 145.336 217.383C143.111 217.383 141.349 217.22 140.049 216.895C139.149 216.63 138.536 216.601 138.211 216.808C137.877 217.008 137.58 217.558 137.324 218.458L132.724 233.92L132.061 235.82L130.599 239.658C129.799 242.033 128.83 243.858 127.699 245.133C127.399 245.473 127.139 245.973 126.924 246.633C126.639 247.483 125.98 248.195 124.949 248.77C123.905 249.32 122.949 249.511 122.074 249.345L120.149 248.995C119.614 248.961 119.143 248.764 118.736 248.408L118.224 247.883L117.711 247.283C117.255 246.689 117.118 245.911 117.299 244.945L118.199 240.945Z" fill="#EA663F"/>
<path d="M194.823 233.406L194.773 233.568L194.048 239.868L193.736 242.768L193.611 243.531L193.536 244.293C193.561 245.443 193.28 246.602 192.698 247.768C192.489 248.224 192.317 248.684 192.186 249.143C191.711 250.918 190.661 252.771 189.036 254.706L187.373 256.881C186.93 257.481 186.464 257.874 185.973 258.068C185.223 258.359 184.53 258.799 183.898 259.393C183.38 259.884 182.667 260.137 181.761 260.156C180.101 260.156 178.314 259.681 176.398 258.731C175.573 258.312 174.63 257.746 173.573 257.031L172.198 256.106L170.836 255.143C169.542 254.259 168.505 253.209 167.723 251.993C166.08 249.484 165.048 247.068 164.623 244.743C163.923 240.762 163.592 236.737 163.636 232.668L163.773 226.793L163.986 220.881L164.261 215.568L164.611 210.218L164.623 209.943L165.323 204.818C165.623 202.762 165.901 201.04 166.161 199.656C167.061 194.906 169.311 190.931 172.911 187.731C173.676 187.065 174.611 186.331 175.711 185.531L178.611 183.556C179.001 183.281 179.389 183.087 179.773 182.968C181.773 182.387 183.564 182.262 185.148 182.593C185.905 182.737 186.505 183.106 186.948 183.706L187.886 185.131L188.311 185.843L188.723 186.531C189.405 187.49 189.855 188.724 190.073 190.231C190.305 191.64 190.355 192.899 190.223 194.006C190.139 194.44 190.126 194.943 190.186 195.518L190.311 196.993L190.486 199.268L190.461 201.468C190.461 202.368 190.298 203.068 189.973 203.568C189.889 203.712 189.78 203.777 189.648 203.768L189.448 203.706L189.323 203.543L188.923 202.006L188.761 201.018L188.611 200.018L188.486 199.318L188.273 198.606L187.548 196.731L186.911 194.818C186.001 192.352 184.861 190.374 183.486 188.881C183.167 188.54 182.817 188.493 182.436 188.743C181.386 189.487 180.576 190.377 180.011 191.418L179.561 192.206L179.148 193.043C178.848 193.677 178.651 194.265 178.561 194.806L178.548 195.993L178.536 197.143L178.423 197.631L178.236 198.143C178.101 198.577 178.03 198.927 178.023 199.193C177.98 199.902 177.826 200.812 177.561 201.918C177.317 202.893 177.23 204.037 177.298 205.343L177.348 208.368L177.311 211.406L177.261 217.406L177.286 220.118L177.273 222.781L177.348 227.068L177.448 231.406L177.486 232.481L177.473 233.531V234.931L177.573 236.281L177.836 239.093C177.967 240.137 178.151 241.056 178.386 241.856C178.786 243.149 179.236 244.249 179.736 245.156C180.361 246.281 180.973 247.137 181.573 247.731C182.373 248.606 183.267 248.693 184.261 247.993C185.842 246.959 187.023 245.987 187.798 245.068C188.498 244.227 189.017 243.152 189.361 241.843C189.701 240.268 190.189 238.465 190.823 236.431L191.123 235.168C191.414 233.743 191.761 232.59 192.161 231.706C192.311 231.424 192.439 231.018 192.548 230.493L192.773 229.206L192.823 228.956L192.886 228.718C192.951 228.537 193.067 228.418 193.236 228.368C193.426 228.327 193.598 228.377 193.748 228.518L193.898 228.768L194.111 228.981L194.286 229.281L194.473 229.581C195.114 230.431 195.298 231.437 195.023 232.593L194.923 232.868L194.823 233.318V233.406Z" fill="#EA663F"/>
<path d="M226.319 234.532C227.185 234.426 227.835 234.279 228.269 234.095C230.019 233.395 231.382 232.104 232.357 230.22L233.007 228.807L233.632 227.357C233.907 226.642 234.188 225.732 234.482 224.632L235.207 221.832C235.822 219.551 236.169 217.479 236.244 215.62L236.257 214.382L236.219 213.207L236.169 211.57L236.157 209.97C236.147 208.729 235.997 207.676 235.707 206.807L235.644 206.482L235.594 206.157C235.319 204.282 234.835 202.857 234.144 201.882C234.035 201.657 233.907 201.364 233.757 200.995C233.613 200.554 233.325 199.945 232.894 199.17L232.357 198.245L231.844 197.32C231.469 196.57 231.2 195.914 231.044 195.345L230.869 194.982L230.619 194.62L228.019 191.22C227.544 190.629 226.922 190.332 226.157 190.332C225.207 190.342 224.444 190.451 223.869 190.657L223.307 190.832L222.694 190.932C221.419 191.026 220.197 191.704 219.032 192.97C218.288 193.789 217.457 194.929 216.532 196.395C215.113 198.57 214.257 200.382 213.957 201.832L213.594 203.445L213.269 205.132L213.132 205.945L212.957 206.82L212.807 207.345L212.694 207.882L212.557 209.72L212.457 211.595C212.422 214.139 212.563 216.604 212.882 218.995C213.238 221.845 213.813 224.17 214.607 225.97C215.688 228.579 216.96 230.451 218.419 231.582L218.619 231.745L218.794 231.932C220.819 233.842 223.325 234.707 226.319 234.532ZM239.494 203.27C239.485 203.704 239.544 204.217 239.669 204.807L239.969 206.32L240.257 208.132L240.444 210.007L240.844 213.757C240.885 214.357 240.888 214.904 240.857 215.395L240.732 217.782L240.594 220.182L240.519 222.082L240.419 223.957L240.357 224.607L240.257 225.27C239.797 227.929 239.119 230.582 238.219 233.232C237.694 234.682 236.985 236.079 236.094 237.42C235.319 238.589 234.169 239.695 232.644 240.745C231.7 241.379 231.035 241.904 230.644 242.32C230.244 242.745 229.763 243.092 229.207 243.357L227.507 244.057L225.732 244.757C224.107 245.326 222.35 245.407 220.469 245.007C217.875 244.432 215.71 243.707 213.969 242.832L213.344 242.52L211.269 241.032L209.232 239.532C208.522 238.992 207.719 238.27 206.819 237.37C205.835 236.395 205.013 235.345 204.357 234.22C202.997 231.839 201.947 229.607 201.207 227.532L200.169 224.607C199.813 223.507 199.538 222.526 199.344 221.657L199.219 221.045L199.107 220.482L198.857 216.307L198.694 212.145C198.688 209.92 198.875 207.642 199.257 205.307L200.132 200.295C200.222 199.879 200.369 199.354 200.569 198.72L201.057 197.195C201.557 195.604 202.622 193.445 204.257 190.72C205.582 188.47 207.3 186.742 209.419 185.532C210.219 185.042 211.072 184.67 211.982 184.42L213.807 183.97C214.507 183.754 215.1 183.545 215.594 183.345C216.1 183.079 216.71 183.004 217.419 183.12C218.16 183.229 219.007 183.204 219.957 183.045C222.122 182.704 224.16 182.804 226.069 183.345C226.719 183.545 227.269 183.745 227.719 183.945C229.575 184.954 230.957 185.939 231.857 186.895C233.772 188.904 235.194 190.795 236.119 192.57L236.244 192.807L236.344 193.057C236.644 194.276 237.213 195.729 238.057 197.42C238.313 197.929 238.538 198.601 238.732 199.432L238.957 200.495L239.169 201.545L239.357 202.407L239.494 203.27Z" fill="#EA663F"/>
<path d="M274.822 217.048C274.953 217.223 275.122 217.442 275.322 217.698L275.822 218.448C276.288 219.142 276.672 219.71 276.972 220.16C277.972 221.61 278.825 222.923 279.534 224.098C281.609 227.617 282.841 230.67 283.234 233.26L283.272 233.573C284.053 240.148 279.575 244.02 269.834 245.185C268.65 245.329 267.388 245.423 266.047 245.473L265.597 245.485C260.747 245.679 256.784 244.642 253.709 242.373C251.575 240.857 249.478 238.273 247.422 234.623C246.663 233.307 245.928 231.76 245.222 229.985L244.409 227.61L243.584 225.16L243.472 224.885L243.347 224.573L243.309 224.323C243.294 224.173 243.294 224.023 243.309 223.873C243.369 223.292 243.841 222.895 244.722 222.685L244.922 222.66C245.572 222.579 246.075 222.76 246.434 223.21C246.566 223.385 246.688 223.617 246.797 223.898L247.022 224.26L247.159 224.535C247.659 225.51 248.366 226.904 249.284 228.71L250.259 230.773L251.309 232.923C253.441 236.857 256.034 239.62 259.084 241.21C260.041 241.67 261.016 242.045 262.009 242.335C263.141 242.62 264.159 242.707 265.059 242.598L265.209 242.585C268.9 242.029 270.553 240.135 270.172 236.91L270.097 236.348C269.247 231.673 264.55 223.923 256.009 213.098C255.325 212.298 254.222 210.785 252.697 208.56C250.978 206.129 249.253 203.632 247.522 201.073C242.906 194.107 240.041 189.292 238.922 186.623C238.181 184.798 237.719 183.11 237.534 181.56C237.059 177.635 238.344 174.507 241.384 172.173C243.853 170.307 247.059 169.135 251.009 168.66C252.191 168.52 253.441 168.442 254.759 168.423C256.959 168.407 258.884 169.029 260.534 170.285C264.009 172.86 266.397 176.745 267.697 181.935L267.759 182.148L267.797 182.373C267.828 182.457 267.85 182.542 267.859 182.623C267.866 182.707 267.863 182.785 267.847 182.86C267.738 183.295 267.413 183.545 266.872 183.61L266.797 183.623C266.463 183.667 266.188 183.557 265.972 183.298C265.903 183.223 265.847 183.092 265.797 182.898L265.684 182.71L265.634 182.56C265.409 182.12 265.159 181.557 264.884 180.873L264.234 179.135C263.659 177.82 263.063 176.742 262.447 175.898C261.797 175.048 260.963 174.135 259.947 173.16C257.888 171.57 255.428 170.848 252.572 170.998C252.228 171.017 251.897 171.042 251.572 171.073C250.928 171.157 250.3 171.292 249.684 171.473C249.375 171.557 249.063 171.648 248.747 171.748C248.638 171.782 248.528 171.82 248.422 171.86L248.309 171.923L248.222 171.935C247.088 172.479 246.309 173.267 245.884 174.298C245.691 174.792 245.625 175.282 245.684 175.773C245.734 176.198 245.909 176.617 246.209 177.023L247.509 178.548L248.797 180.085C249.788 181.285 250.591 182.298 251.209 183.123C252.016 184.298 253.084 185.879 254.409 187.86L256.009 190.21L257.609 192.573L264.109 201.76L270.597 210.973L272.734 214.01C273.6 215.204 274.297 216.217 274.822 217.048Z" fill="#EA663F"/>
<path d="M154.953 121.354L151.69 120.166L137.415 116.054L132.115 114.591L126.69 113.391C119.706 112.26 112.378 111.838 104.703 112.129C102.078 112.247 99.2686 112.138 96.2779 111.804L94.6404 111.716L93.0529 111.616C89.2092 111.735 84.6717 111.666 79.4404 111.416L77.5154 111.304L75.6154 111.141C74.3717 111.085 73.8279 111.322 73.9779 111.854C74.0529 112.163 74.2311 112.397 74.5154 112.554L75.2779 112.879C78.9436 114.063 81.7811 114.75 83.7904 114.941C85.8654 115.16 88.0561 115.488 90.3654 115.929L93.8154 116.666L97.3029 117.479C100.053 118.029 102.409 118.375 104.378 118.516L105.19 118.654C105.747 118.822 106.006 119.185 105.965 119.741L105.84 120.891C104.631 125.85 103.728 130.6 103.128 135.141L102.553 138.141L101.79 141.104L100.553 146.941L99.3904 152.791L98.2154 158.929L96.8529 165.004L95.1904 172.429L93.4029 179.729L88.8904 197.466L87.6154 201.679L86.4279 205.866L83.9404 216.766L81.4404 227.679C80.1404 233.219 79.4529 237.629 79.3779 240.904L79.0904 243.629L78.8654 246.354L78.9029 247.979L79.0279 249.529C79.1279 250.894 79.8092 251.754 81.0779 252.104C81.7592 252.31 82.5311 252.654 83.3904 253.129C84.4654 253.71 85.6842 253.954 87.0529 253.854L89.9904 253.504C91.1467 253.304 92.2061 253.244 93.1654 253.329C95.2154 253.485 96.8092 252.722 97.9529 251.041C99.0342 249.397 100.594 247.704 102.628 245.954C104.153 244.594 105.419 242.666 106.428 240.166L108.465 234.716L111.028 227.666C111.509 226.425 111.928 224.966 112.278 223.291L113.153 218.904C113.894 215.413 114.431 212.272 114.765 209.479L115.265 205.541L115.89 201.654C117.206 195.879 118.072 189.838 118.49 183.529C118.606 182.029 118.89 180.122 119.34 177.804L120.415 172.091L121.128 168.416L121.878 164.691L123.103 157.391L124.515 150.141C124.765 149.085 124.831 148.216 124.715 147.541C124.215 145.1 124.444 142.738 125.403 140.454L125.765 139.216L126.015 137.879C126.19 136.522 126.472 135.404 126.865 134.529C127.39 133.497 127.694 131.991 127.778 130.016L128.015 127.291L128.39 124.516C128.472 123.741 128.94 123.413 129.79 123.529L130.678 123.666C134.609 124.31 138.378 124.588 141.978 124.504C145.844 124.429 148.815 124.71 150.89 125.341L153.628 125.854L156.353 126.066C157.584 126.175 158.331 125.679 158.59 124.579C158.756 123.879 158.39 123.263 157.49 122.729L154.953 121.354Z" fill="#EA663F"/>
<path d="M54.8031 108.6C57.3812 108.166 60.0844 108.172 62.5406 108.259C64.875 108.344 67.2094 108.519 69.5312 108.781C71.5625 109.013 73.7344 109.097 75.7125 109.503C80.2156 110.431 84.6469 111.747 89.0687 113.006C91.5875 113.722 94.1656 114.322 96.65 115.147C99.825 116.206 102.141 118.969 100.334 122.228C98.9031 124.819 96.1375 126.709 93.6281 128.153C81.1531 135.331 61.1281 140.219 48.3906 133.516C45.075 131.772 41.6437 125.597 41.7781 121.466C41.9156 117.316 45.425 113.184 48.6812 110.922C50.4812 109.672 52.5969 108.975 54.8031 108.6Z" fill="#F89C3B"/>
<path d="M164.253 111.578C164.819 115.163 163.091 115.347 159.816 116.294C152.031 118.55 144.097 120.284 136.119 121.688C135.7 121.766 135.284 121.834 134.859 121.906C126.256 123.381 117.616 124.672 108.991 126.031C105.722 126.541 103.244 127.509 100.197 128.525C96.7031 129.684 92.5 129.691 88.8063 129.816C88.6563 129.822 88.5031 129.828 88.3563 129.834C87.7719 129.853 87.1688 129.869 86.625 129.659C85.225 129.122 84.7406 127.409 84.5094 125.928C83.7469 121.081 83.4844 116.025 83.5188 110.928C83.5281 110.031 83.5406 109.125 83.5656 108.225C83.6031 106.766 83.6656 105.3 83.7438 103.844C83.8031 102.688 83.875 101.544 83.9594 100.4C84.2031 96.825 84.5313 93.2969 84.8719 89.8688V89.8219C84.9438 89.0813 85.025 88.3375 85.1063 87.5938C85.2063 86.6219 85.3219 85.65 85.4406 84.6813C85.6813 82.7094 85.9469 80.7407 86.2563 78.7719C86.3969 77.8313 86.5469 76.8938 86.7094 75.9532C86.8688 74.9844 87.0406 74.0188 87.2219 73.0594C88.6688 65.3219 90.6781 57.6969 93.475 50.3219C95.3406 45.425 97.5875 40.5844 101.038 36.6375C104.491 32.6938 109.291 29.7063 114.522 29.3719C121.134 28.9438 127.353 32.75 132.009 37.4719C138.344 43.8969 142.578 52.0719 146.213 60.3375C146.447 60.8625 146.675 61.3969 146.903 61.925C147.341 62.9406 147.769 63.95 148.188 64.975C148.428 65.55 148.666 66.1281 148.903 66.7156C149.516 68.2281 150.119 69.7531 150.703 71.2782C151.125 72.3782 151.544 73.4875 151.956 74.6C152.303 75.5407 152.65 76.4844 152.988 77.425C153.853 79.8282 154.697 82.2375 155.509 84.65C155.903 85.8156 156.294 86.9781 156.678 88.1438C156.713 88.25 156.75 88.3531 156.781 88.4594C157.116 89.4688 157.444 90.4781 157.775 91.4906C158.119 92.5563 158.456 93.6219 158.797 94.6938C159.509 96.9531 160.209 99.2125 160.894 101.478C161.919 104.875 163.703 108.038 164.253 111.578Z" fill="#F9AD4A"/>
<path d="M158.797 94.6937C157.897 94.65 157.012 94.6219 156.153 94.6344C152.278 94.6812 148.4 94.8594 144.534 95.1719C136.806 95.7875 129.103 96.8844 121.509 98.4625C113.912 100.044 106.453 102.162 99.1156 104.687C95.3156 105.994 91.5562 107.406 87.85 108.959C86.4156 109.569 84.975 110.256 83.5187 110.928C83.5281 110.031 83.5406 109.125 83.5656 108.225C84.725 107.675 85.8812 107.15 87.0062 106.641C90.5469 105.025 94.1375 103.528 97.7781 102.156C105.316 99.3187 113.112 97.1031 120.978 95.3906C128.859 93.675 136.834 92.5094 144.881 91.9437C148.747 91.6719 152.628 91.5219 156.506 91.5094C156.925 91.5062 157.347 91.5 157.775 91.4906C158.119 92.5562 158.456 93.6219 158.797 94.6937Z" fill="#106B64"/>
<path d="M156.781 88.4594C154.491 88.55 152.134 88.4062 149.928 88.5C146.425 88.6562 142.931 88.9094 139.444 89.2656C132.244 89.9937 125.075 91.0781 118.003 92.6031C110.872 94.1437 103.834 96.1219 96.9563 98.5594C93.4375 99.8062 89.9781 101.203 86.5344 102.653C85.6 103.05 84.6719 103.441 83.7438 103.844C83.8031 102.687 83.875 101.544 83.9594 100.4C84.5125 100.15 85.0531 99.9062 85.5719 99.6656C88.9594 98.0781 92.4563 96.6969 95.9625 95.4031C102.956 92.8219 110.119 90.7187 117.388 89.0656C124.734 87.4 132.175 86.1906 139.678 85.5062C143.172 85.1844 146.669 84.9625 150.169 84.8375C151.919 84.7781 153.725 84.6437 155.509 84.65C155.903 85.8156 156.294 86.9781 156.678 88.1437C156.713 88.25 156.75 88.3531 156.781 88.4594Z" fill="#F14959"/>
<path d="M87.925 95.8657C89.6094 95.3813 89.6063 92.6032 87.7594 92.3813C86.5031 92.2282 85.2 93.9219 85.8469 95.0719C86.2375 95.7688 87.1563 96.0875 87.925 95.8657Z" fill="white"/>
<path d="M95.6906 93.1938C97.375 92.7094 97.3687 89.9313 95.525 89.7094C94.2656 89.5563 92.9625 91.25 93.6094 92.4C94.0031 93.0969 94.9219 93.4157 95.6906 93.1938Z" fill="white"/>
<path d="M103.456 90.5219C105.138 90.0375 105.134 87.2594 103.288 87.0375C102.031 86.8844 100.728 88.5782 101.375 89.7282C101.769 90.425 102.684 90.7438 103.456 90.5219Z" fill="white"/>
<path d="M111.219 87.85C112.903 87.3657 112.9 84.5875 111.053 84.3657C109.794 84.2125 108.494 85.9063 109.141 87.0563C109.531 87.7532 110.45 88.0719 111.219 87.85Z" fill="white"/>
<path d="M119.897 86.3781C121.581 85.8937 121.575 83.1156 119.731 82.8937C118.472 82.7406 117.169 84.4344 117.816 85.5844C118.209 86.2812 119.128 86.6 119.897 86.3781Z" fill="white"/>
<path d="M128.228 85.4469C129.909 84.9594 129.906 82.1813 128.063 81.9594C126.803 81.8063 125.5 83.5 126.147 84.65C126.541 85.3469 127.456 85.6657 128.228 85.4469Z" fill="white"/>
<path d="M135.184 83.7844C136.866 83.3 136.862 80.5219 135.019 80.3C133.759 80.1469 132.456 81.8406 133.103 82.9875C133.497 83.6875 134.412 84.0062 135.184 83.7844Z" fill="white"/>
<path d="M143.322 83.3219C145.006 82.8344 145 80.0563 143.156 79.8344C141.897 79.6844 140.597 81.375 141.241 82.525C141.634 83.2219 142.553 83.5438 143.322 83.3219Z" fill="white"/>
<path d="M151.391 83.3063C153.072 82.8188 153.069 80.0438 151.222 79.8188C149.966 79.6656 148.663 81.3625 149.309 82.5094C149.7 83.2063 150.619 83.5281 151.391 83.3063Z" fill="white"/>
<path d="M152.988 77.425C150.763 78.2312 148.116 77.5531 145.959 76.4937C144.406 75.7375 142.838 74.7656 141.056 74.7281C139 74.6844 137.313 75.8625 135.641 76.9062C133.053 78.5187 131 79.2937 128.15 77.8344C125.847 76.6594 124.238 76.5 122.05 78.0375C120.788 78.9219 119.697 80.0281 118.338 80.7781C116.669 81.6937 114.775 82.1156 112.878 82.0094C111.047 81.9125 109.294 80.7719 107.494 81.4094C104.281 82.5469 101.984 86.0375 98.3031 85.6562C95.9344 85.4062 94.0688 84.7719 91.7375 85.7219C89.6688 86.5656 88.1219 88.1469 86.225 89.2594C85.7563 89.5344 85.3031 89.7344 84.8719 89.8687V89.8219C84.9438 89.0812 85.025 88.3375 85.1063 87.5937C86.825 86.775 88.1625 85.3406 89.8031 84.3781C91.2156 83.5469 92.775 82.9094 94.4375 82.9062C96.1031 82.9062 97.7 83.6969 99.3719 83.4687C102.813 83.0031 105.3 78.4219 108.959 78.925C110.759 79.175 112.228 79.8531 114.094 79.65C116.231 79.4156 118.009 78.4719 119.675 77.1656C122.153 75.2187 124.209 73.5687 127.366 75.0969C128.994 75.8875 130.316 76.6031 132.184 75.9937C133.669 75.5094 134.938 74.4719 136.253 73.6625C139.1 71.9156 141.463 71.8719 144.494 73.1656C146.125 73.8594 147.741 74.7687 149.544 74.9062C150.428 74.9781 151.203 74.8344 151.956 74.6C152.303 75.5406 152.65 76.4844 152.988 77.425Z" fill="#F14959"/>
<path d="M88.5969 78.95C88.6344 79.0562 88.6156 79.1875 88.5781 79.3031C88.125 80.5531 86.9125 82.3062 86.0125 84.025C85.8719 84.2969 85.6844 84.5906 85.4406 84.6812C85.6812 82.7094 85.9469 80.7406 86.2562 78.7719C86.8844 78.7031 87.5125 78.6812 88.125 78.7312L88.225 78.7406C88.3719 78.7625 88.5469 78.7969 88.5969 78.95Z" fill="#106B64"/>
<path d="M101.9 75.0625L102 75.0593C102.15 75.0562 102.325 75.0687 102.4 75.2187C102.447 75.3187 102.45 75.45 102.425 75.5687C102.141 76.8687 101.169 78.7625 100.503 80.5875C100.381 80.9156 100.203 81.2875 99.9187 81.3593C99.7156 81.4093 99.525 81.2906 99.3531 81.1718C98.8875 80.8531 94.5093 77.9187 95.4281 77.0468C95.7687 76.725 96.1875 76.575 96.5906 76.4343C98.3218 75.8312 100.125 75.1625 101.9 75.0625Z" fill="#106B64"/>
<path d="M117.469 70.9562L117.569 70.9624C117.719 70.9718 117.891 70.9999 117.953 71.1531C117.994 71.2562 117.984 71.3874 117.95 71.5031C117.566 72.7781 116.447 74.5906 115.637 76.3531C115.491 76.6718 115.284 77.0281 114.994 77.0781C114.787 77.1093 114.606 76.9781 114.447 76.8468C114.006 76.4874 109.875 73.2187 110.862 72.4218C111.225 72.1281 111.653 72.0124 112.069 71.9031C113.841 71.4406 115.694 70.9156 117.469 70.9562Z" fill="#106B64"/>
<path d="M134.453 67.9875L134.556 68C134.703 68.0187 134.875 68.0562 134.928 68.2156C134.962 68.3187 134.944 68.45 134.903 68.5656C134.437 69.8125 133.209 71.55 132.294 73.2593C132.125 73.5718 131.897 73.9125 131.603 73.9406C131.397 73.9625 131.225 73.8187 131.072 73.6781C130.653 73.2937 126.734 69.7718 127.769 69.0406C128.15 68.7687 128.584 68.6812 129.006 68.5968C130.803 68.2437 132.684 67.8375 134.453 67.9875Z" fill="#106B64"/>
<path d="M148.187 64.975C146.406 65.1094 144.587 65.0625 142.897 65.1782C139.778 65.3813 136.659 65.6532 133.547 65.9907C127.484 66.6407 121.444 67.5375 115.453 68.6625C109.3 69.8188 103.2 71.1844 97.1594 72.8188C94.1437 73.6375 91.1469 74.5157 88.1625 75.4563C87.6969 75.6032 87.2094 75.7751 86.7094 75.9532C86.8687 74.9844 87.0406 74.0188 87.2219 73.0594L87.2719 73.0407C90.3906 72.0125 93.5344 71.05 96.7 70.1594C102.719 68.4563 108.809 66.9844 114.953 65.8C121.25 64.5844 127.597 63.6438 133.969 62.9625C137.237 62.6125 140.512 62.3407 143.787 62.1282C144.816 62.0625 145.856 61.975 146.903 61.925C147.341 62.9407 147.769 63.95 148.187 64.975Z" fill="white"/>
<path d="M150.703 71.2781C150.531 71.4812 150.356 71.6875 150.197 71.8968C149.978 72.175 149.694 72.4718 149.397 72.4531C149.194 72.4375 149.047 72.2656 148.925 72.0968C148.578 71.65 145.334 67.5 146.478 66.9562C146.903 66.7531 147.344 66.7437 147.772 66.7343C148.147 66.725 148.525 66.7218 148.903 66.7156C149.516 68.2281 150.119 69.7531 150.703 71.2781Z" fill="#64B456"/>
<path d="M160.894 101.478C160.209 99.2124 159.509 96.9531 158.797 94.6937C158.456 93.6218 158.119 92.5562 157.775 91.4906C157.444 90.4781 157.116 89.4687 156.781 88.4593C156.75 88.3531 156.713 88.2499 156.678 88.1437C156.294 86.9781 155.903 85.8156 155.509 84.6499C154.697 82.2374 153.853 79.8281 152.988 77.4249C152.65 76.4843 152.303 75.5406 151.956 74.5999C151.544 73.4874 151.125 72.3781 150.703 71.2781C150.119 69.7531 149.516 68.2281 148.903 66.7156C148.666 66.1281 148.428 65.5499 148.188 64.9749C147.769 63.9499 147.341 62.9406 146.903 61.9249C146.675 61.3968 146.447 60.8624 146.213 60.3374C142.578 52.0718 138.344 43.8968 132.009 37.4718C128.947 34.3656 125.203 31.6625 121.116 30.2937C126.278 33.9531 130.663 38.5343 134.138 44.1343C138.556 51.2531 140.663 59.3218 142.847 67.3249C145.069 75.4812 146.391 85.9124 138.438 91.5062C136.2 93.0781 133.644 93.7562 131.25 94.9968C128.9 96.2156 126.594 97.5093 124.309 98.8499C119.419 101.722 114.706 104.881 109.691 107.537C101.566 111.844 92.7406 115.247 83.6219 116.75C83.7594 119.862 84.0375 122.934 84.5094 125.928C84.7406 127.409 85.225 129.122 86.625 129.659C87.1688 129.869 87.7719 129.853 88.3563 129.834C88.5031 129.828 88.6563 129.822 88.8063 129.816C92.5 129.691 96.7031 129.684 100.197 128.525C103.244 127.509 105.722 126.541 108.991 126.031C117.616 124.672 126.256 123.381 134.859 121.906C135.284 121.834 135.7 121.766 136.119 121.687C144.097 120.284 152.031 118.55 159.816 116.294C163.091 115.347 164.819 115.162 164.253 111.578C163.703 108.037 161.919 104.875 160.894 101.478Z" fill="#E79C3A"/>
<path d="M157.775 91.4906C157.347 91.5 156.925 91.5062 156.506 91.5094C152.628 91.5219 148.747 91.6719 144.881 91.9437C141.972 92.15 139.075 92.4344 136.184 92.7937C134.566 93.5687 132.872 94.1562 131.25 94.9969C129.725 95.7906 128.216 96.6156 126.719 97.4625C132.616 96.4125 138.569 95.6469 144.534 95.1719C148.4 94.8594 152.278 94.6812 156.153 94.6344C157.013 94.6219 157.897 94.65 158.797 94.6937C158.456 93.6219 158.119 92.5562 157.775 91.4906Z" fill="#0E504B"/>
<path d="M156.678 88.1437C156.294 86.9781 155.903 85.8156 155.509 84.65C153.725 84.6437 151.919 84.7781 150.169 84.8375C147.903 84.9187 145.637 85.0437 143.372 85.2062C142.831 86.6062 142.081 87.9187 141.069 89.1094C144.019 88.8375 146.972 88.6312 149.928 88.5C152.134 88.4062 154.491 88.55 156.781 88.4594C156.75 88.3531 156.712 88.25 156.678 88.1437Z" fill="#DF3B48"/>
<path d="M144.081 82.8469C144.575 82.3 144.687 81.45 144.412 80.7875C144.337 81.4844 144.231 82.1719 144.081 82.8469Z" fill="white"/>
<path d="M151.391 83.3063C153.072 82.8188 153.069 80.0438 151.222 79.8188C149.966 79.6656 148.663 81.3625 149.309 82.5094C149.7 83.2063 150.619 83.5281 151.391 83.3063Z" fill="white"/>
<path d="M151.956 74.6C151.203 74.8344 150.428 74.9781 149.544 74.9062C147.741 74.7687 146.125 73.8594 144.494 73.1656C144.359 73.1094 144.231 73.0594 144.1 73.0062C144.244 73.9094 144.359 74.8219 144.437 75.7312C144.95 75.9844 145.456 76.25 145.959 76.4937C148.116 77.5531 150.762 78.2312 152.987 77.425C152.65 76.4844 152.303 75.5406 151.956 74.6Z" fill="#DF3B48"/>
<path d="M146.903 61.925C145.856 61.975 144.816 62.0625 143.788 62.1282C143.013 62.1782 142.238 62.2438 141.463 62.3C141.738 63.275 142.006 64.25 142.275 65.225C142.481 65.2125 142.688 65.1907 142.897 65.1782C144.588 65.0625 146.406 65.1094 148.188 64.975C147.769 63.95 147.341 62.9407 146.903 61.925Z" fill="white"/>
<path d="M150.703 71.2781C150.531 71.4812 150.356 71.6875 150.197 71.8968C149.978 72.175 149.694 72.4718 149.397 72.4531C149.194 72.4375 149.047 72.2656 148.925 72.0968C148.578 71.65 145.334 67.5 146.478 66.9562C146.903 66.7531 147.344 66.7437 147.772 66.7343C148.147 66.725 148.525 66.7218 148.903 66.7156C149.516 68.2281 150.119 69.7531 150.703 71.2781Z" fill="#0E504B"/>
<path d="M189.291 124.984C187.375 125.388 185.463 125.738 183.609 126.094C170.497 128.606 157.3 129.731 143.969 129.278C141.469 129.194 138.969 129.075 136.472 128.922C134.413 128.8 130.731 129.206 128.981 128.181C129.769 126.172 132.341 124.853 134.122 123.825C151.775 113.65 173.834 103.119 194.184 102.159C197.816 101.988 203.044 101.213 206.119 105.05C208.353 107.834 209.569 111.209 208.763 114.672C208.106 117.509 203.931 119.619 201.569 120.906C197.847 122.938 193.559 124.088 189.291 124.984Z" fill="#ED8334"/>
<path d="M211.872 114.097C211 115.072 210.066 115.978 209.084 116.791C206.684 118.806 204.038 120.275 201.569 120.906C204.881 118.259 207.619 114.013 207.169 111.325C206.097 104.938 201.769 103.609 197.094 104.125C183.822 105.594 171.403 112.781 159.459 118.228C138.144 127.953 114.956 141.784 91.8219 146.888C83.0219 148.828 74.0313 150.219 65.0031 150.309C56.7625 150.394 47.0187 149.734 39.9094 145.128C32.9719 140.631 30.1906 129.209 33.7062 121.159C34.1969 120.041 34.8062 118.988 35.5437 118.025C35.7187 117.797 35.9 117.581 36.0844 117.366C40.7406 112.022 48.2281 109.091 55.3063 108.525C51.8594 110.434 48.0406 112.469 46.35 116.028C45.0281 118.794 44.625 122.313 45.8062 125.203C46.6594 127.3 49.2125 128.963 51.1719 129.988C55.3312 132.172 60.2438 132.338 64.9312 132.028C71.0625 131.628 77.075 130.441 82.975 128.759C94.7625 125.394 106.109 120.041 117.094 114.981C124.4 111.619 131.491 107.788 138.728 104.131C153.803 96.5156 172.081 88.2438 189.066 86.8063C198.663 85.9969 208.106 86.4531 214.338 93.9344C219.669 100.341 216.944 108.397 211.872 114.097Z" fill="#A35D43"/>
<path d="M211.872 114.097C211 115.072 210.066 115.978 209.084 116.791C209.509 115.694 209.881 114.578 210.181 113.447C210.762 111.309 211.094 109.234 210.1 107.122C209.625 106.116 208.959 105.144 208.241 104.3C202.672 97.8281 190.9 101.044 184.1 103.494C177.181 105.987 170.719 109.537 164.087 112.684C155.525 116.744 147.028 120.912 138.572 125.175C130.962 129.016 123.437 132.956 115.509 136.112C107.85 139.166 99.9625 141.656 91.9344 143.537C83.8281 145.434 75.5594 146.709 67.2406 147.047C59.8062 147.35 51.4312 147.434 44.65 143.934C36.8875 139.928 32.9781 130.025 33.7062 121.159C34.1969 120.041 34.8062 118.987 35.5437 118.025C33.9437 124.809 35.3687 132.512 40.2094 137.666C46.4094 144.266 57.0906 144.156 65.4625 143.872C82.1437 143.306 98.675 139.072 114.153 132.991C122.059 129.891 129.553 126.006 137.125 122.181C145.581 117.912 154.072 113.716 162.634 109.669C169.437 106.45 176.062 102.797 183.144 100.2C189.637 97.8219 197.337 95.9531 204.141 98.2437C210.416 100.356 212.859 108.069 211.872 114.097Z" fill="#106B64"/>
<path d="M40.0688 119.575C40.3313 119.613 40.5438 119.684 40.6844 119.794C40.9938 120.034 40.9406 120.509 40.8469 120.891C40.1781 123.563 38.6594 125.534 37.4625 127.922C37.3219 128.206 37.0125 128.544 36.75 128.363C36.6281 128.281 36.5906 128.125 36.5656 127.984C36.1375 125.625 35.9938 123.066 35.9188 120.669C35.9156 120.509 35.9125 120.334 36 120.2C36.1 120.053 36.2813 119.984 36.4531 119.938C37.0656 119.759 38.975 119.406 40.0688 119.575Z" fill="#F14959"/>
<path d="M41.9625 137.406C40.85 136.969 39.4531 134.441 39.0531 133.741C38.7437 133.2 37.3344 131.116 37.7156 130.494C37.8625 130.256 38.2094 130.266 38.4875 130.309C39.4719 130.456 44.5875 129.878 44.1781 131.653C43.9375 132.697 43.6969 133.738 43.4562 134.781C43.3125 135.413 43.2312 137.091 42.5375 137.416C42.3594 137.5 42.1656 137.488 41.9625 137.406Z" fill="#F14959"/>
<path d="M51.2156 142.241L51.3375 142.256C51.5218 142.278 51.7375 142.288 51.8562 142.15C51.9375 142.059 51.9656 141.928 51.9562 141.806C51.8718 140.478 51.0593 138.469 50.6062 136.575C50.525 136.228 50.3812 135.838 50.0437 135.731C49.8062 135.653 49.55 135.747 49.3187 135.841C47.4406 136.6 45.6312 137.419 44.6437 137.966C44.4437 138.075 44.2468 138.2 44.1093 138.384C42.6312 140.384 50.1562 142.109 51.2156 142.241Z" fill="#F14959"/>
<path d="M61.5969 142.831L61.7188 142.803C61.9 142.766 62.1063 142.703 62.175 142.534C62.2188 142.422 62.2031 142.291 62.1563 142.178C61.6406 140.95 60.2156 139.319 59.1656 137.675C58.975 137.375 58.7125 137.053 58.3594 137.062C58.1063 137.069 57.8969 137.237 57.7094 137.403C57.1906 137.856 52.3406 142.006 53.5625 142.628C54.0156 142.856 54.5344 142.891 55.0406 142.922C57.1969 143.047 59.4563 143.222 61.5969 142.831Z" fill="#F14959"/>
<path d="M71.5469 142.509L71.6687 142.472C71.8437 142.416 72.0406 142.334 72.0937 142.159C72.1281 142.044 72.1 141.912 72.0406 141.806C71.4062 140.634 69.8312 139.15 68.625 137.616C68.4062 137.337 68.1125 137.044 67.7625 137.084C67.5125 137.112 67.3187 137.306 67.15 137.487C66.6781 137.987 62.2562 142.594 63.5344 143.091C64.0062 143.275 64.5281 143.259 65.0312 143.241C67.1906 143.156 69.4562 143.106 71.5469 142.509Z" fill="#F14959"/>
<path d="M81.6844 141.244L81.8031 141.197C81.975 141.131 82.1656 141.037 82.2062 140.859C82.2344 140.741 82.1969 140.609 82.1344 140.509C81.425 139.381 79.7562 138 78.4562 136.547C78.2219 136.281 77.9094 136.006 77.5625 136.072C77.3156 136.116 77.1344 136.319 76.975 136.512C76.5375 137.041 72.4187 141.919 73.725 142.334C74.2062 142.487 74.7281 142.437 75.2312 142.387C77.3812 142.166 79.6344 141.972 81.6844 141.244Z" fill="#F14959"/>
<path d="M91.7688 139.094L91.8813 139.038C92.0438 138.953 92.2281 138.841 92.25 138.659C92.2625 138.538 92.2125 138.413 92.1375 138.319C91.3188 137.269 89.5188 136.066 88.0781 134.753C87.8156 134.516 87.4781 134.272 87.1375 134.372C86.8969 134.441 86.7375 134.663 86.6 134.872C86.2156 135.444 82.6188 140.716 83.9625 140.997C84.4563 141.1 84.9688 140.997 85.4625 140.894C87.5813 140.453 89.8031 140.031 91.7688 139.094Z" fill="#F14959"/>
<path d="M101.256 136.194L101.366 136.128C101.522 136.034 101.697 135.909 101.709 135.728C101.716 135.606 101.656 135.484 101.575 135.394C100.694 134.397 98.8188 133.313 97.2969 132.094C97.0219 131.872 96.6688 131.65 96.3344 131.772C96.1 131.859 95.9531 132.088 95.8281 132.306C95.4844 132.9 92.2281 138.391 93.5844 138.584C94.0875 138.656 94.5906 138.519 95.0781 138.388C97.1625 137.813 99.3563 137.253 101.256 136.194Z" fill="#F14959"/>
<path d="M110.816 133.253L110.922 133.188C111.081 133.094 111.256 132.969 111.266 132.788C111.272 132.666 111.216 132.544 111.134 132.453C110.25 131.459 108.378 130.372 106.856 129.153C106.578 128.931 106.225 128.713 105.894 128.831C105.656 128.919 105.513 129.147 105.388 129.363C105.044 129.959 101.784 135.45 103.144 135.644C103.644 135.716 104.15 135.581 104.638 135.447C106.719 134.872 108.913 134.309 110.816 133.253Z" fill="#F14959"/>
<path d="M119.769 129.378L119.869 129.303C120.016 129.194 120.178 129.053 120.169 128.869C120.162 128.747 120.094 128.634 120.003 128.55C119.022 127.653 117.044 126.769 115.403 125.712C115.106 125.522 114.731 125.341 114.412 125.497C114.187 125.603 114.069 125.85 113.966 126.078C113.684 126.703 111.019 132.503 112.387 132.556C112.894 132.575 113.381 132.391 113.853 132.203C115.866 131.416 117.987 130.631 119.769 129.378Z" fill="#F14959"/>
<path d="M128.716 125.522L128.816 125.447C128.962 125.334 129.125 125.194 129.116 125.013C129.109 124.891 129.041 124.775 128.95 124.694C127.969 123.797 125.991 122.909 124.35 121.856C124.053 121.666 123.678 121.484 123.359 121.638C123.134 121.747 123.016 121.994 122.912 122.222C122.631 122.847 119.966 128.647 121.334 128.7C121.841 128.719 122.328 128.531 122.8 128.347C124.812 127.559 126.934 126.772 128.716 125.522Z" fill="#F14959"/>
<path d="M137.434 121.178L137.534 121.1C137.681 120.991 137.841 120.85 137.834 120.666C137.828 120.547 137.759 120.431 137.669 120.35C136.684 119.453 134.709 118.566 133.069 117.513C132.772 117.322 132.397 117.141 132.078 117.294C131.853 117.403 131.731 117.647 131.631 117.875C131.35 118.503 128.684 124.303 130.053 124.356C130.559 124.375 131.047 124.188 131.519 124.003C133.531 123.216 135.653 122.428 137.434 121.178Z" fill="#F14959"/>
<path d="M139.247 120.137L139.125 120.169C138.947 120.212 138.737 120.25 138.6 120.128C138.509 120.05 138.462 119.925 138.456 119.8C138.372 118.475 138.919 116.378 139.125 114.441C139.162 114.087 139.256 113.681 139.575 113.531C139.803 113.422 140.069 113.481 140.309 113.547C140.975 113.719 147.166 115.275 146.35 116.375C146.047 116.781 145.594 117.044 145.156 117.297C143.281 118.372 141.337 119.531 139.247 120.137Z" fill="#F14959"/>
<path d="M148.069 115.972L147.95 116.003C147.772 116.047 147.559 116.084 147.422 115.962C147.331 115.884 147.284 115.756 147.278 115.637C147.194 114.306 147.741 112.212 147.947 110.272C147.984 109.922 148.078 109.516 148.397 109.366C148.625 109.256 148.891 109.316 149.131 109.381C149.797 109.553 155.987 111.109 155.172 112.209C154.869 112.616 154.419 112.878 153.978 113.131C152.103 114.206 150.159 115.366 148.069 115.972Z" fill="#F14959"/>
<path d="M156.769 111.213L156.644 111.238C156.463 111.272 156.25 111.297 156.122 111.166C156.034 111.081 155.997 110.953 155.997 110.831C155.994 109.5 156.666 107.441 156.988 105.519C157.047 105.169 157.163 104.772 157.491 104.638C157.725 104.544 157.984 104.622 158.222 104.697C158.875 104.913 164.966 106.834 164.081 107.884C163.756 108.272 163.291 108.506 162.838 108.734C160.9 109.694 158.891 110.734 156.769 111.213Z" fill="#F14959"/>
<path d="M165.475 106.984L165.353 107.009C165.172 107.041 164.959 107.069 164.828 106.937C164.744 106.85 164.706 106.725 164.706 106.6C164.7 105.272 165.375 103.212 165.697 101.291C165.753 100.941 165.872 100.541 166.2 100.409C166.431 100.316 166.694 100.391 166.931 100.469C167.584 100.681 173.672 102.606 172.791 103.656C172.466 104.044 171.997 104.278 171.544 104.503C169.609 105.466 167.6 106.506 165.475 106.984Z" fill="#F14959"/>
<path d="M174.237 102.731L174.116 102.756C173.934 102.791 173.722 102.816 173.594 102.684C173.506 102.6 173.469 102.472 173.469 102.35C173.462 101.019 174.137 98.9594 174.459 97.0375C174.519 96.6875 174.634 96.2875 174.962 96.1562C175.197 96.0625 175.456 96.1406 175.694 96.2156C176.347 96.4312 182.434 98.3531 181.553 99.4031C181.228 99.7906 180.759 100.025 180.306 100.25C178.372 101.212 176.362 102.253 174.237 102.731Z" fill="#F14959"/>
<path d="M183.281 98.825H183.156C182.972 98.825 182.759 98.8125 182.653 98.6625C182.584 98.5625 182.569 98.4312 182.591 98.3094C182.825 97 183.853 95.0937 184.513 93.2594C184.634 92.925 184.822 92.5531 185.169 92.4812C185.413 92.4312 185.656 92.5531 185.875 92.6719C186.481 93 192.128 95.9781 191.072 96.8531C190.681 97.1781 190.181 97.325 189.694 97.4656C187.619 98.0656 185.456 98.7312 183.281 98.825Z" fill="#F14959"/>
<path d="M192.909 96.325L192.787 96.3031C192.606 96.2656 192.4 96.2093 192.325 96.0406C192.278 95.9281 192.291 95.7968 192.337 95.6843C192.831 94.4468 194.225 92.7875 195.244 91.125C195.425 90.825 195.684 90.4968 196.037 90.4968C196.287 90.4968 196.503 90.6656 196.694 90.825C197.219 91.2687 202.147 95.3281 200.937 95.9718C200.491 96.2093 199.969 96.2531 199.466 96.2937C197.309 96.4593 195.056 96.675 192.909 96.325Z" fill="#F14959"/>
<path d="M202.316 96.2406L202.241 96.1719C202.128 96.0719 202.009 95.9437 202.059 95.7844C202.091 95.6781 202.178 95.5812 202.278 95.5125C203.375 94.7562 205.378 94.0375 207.109 93.1625C207.425 93.0062 207.806 92.8562 208.066 93C208.25 93.1 208.306 93.3187 208.35 93.5187C208.472 94.075 209.662 99.2062 208.394 99.2156C207.928 99.2187 207.519 99.0406 207.128 98.8687C205.453 98.125 203.678 97.3812 202.316 96.2406Z" fill="#F14959"/>
<path d="M209.131 100.356L209.097 100.259C209.05 100.119 209.006 99.95 209.125 99.8312C209.203 99.7562 209.328 99.7125 209.45 99.7C210.775 99.5625 212.878 99.9 214.816 99.9656C215.169 99.9781 215.575 100.031 215.731 100.281C215.844 100.459 215.791 100.675 215.731 100.875C215.569 101.419 214.144 106.491 213.028 105.887C212.616 105.666 212.347 105.316 212.084 104.975C210.975 103.516 209.775 102.009 209.131 100.356Z" fill="#F14959"/>
<path d="M110.631 34.1562C109.403 33.1531 108.734 33.3312 107.388 34.1468C106.056 34.9562 104.728 35.9812 103.647 37.0999C101.403 39.4249 99.6031 42.3437 98.0969 45.1812C96.3375 48.4968 95.1188 52.1374 94.0438 55.7249C92.9688 59.3124 91.925 63.0468 91.8219 66.8062C91.8 67.5906 92.6313 69.9968 93.625 68.7781C95.3813 66.6124 96.0906 63.1937 97.0688 60.6124C98.2281 57.5531 99.6406 54.6156 101.197 51.7343C102.563 49.2124 104.194 46.9656 106.028 44.7656C107.884 42.5343 110.875 40.3531 111.406 37.4249C111.588 36.4249 111.506 34.8718 110.631 34.1562Z" fill="#FBC257"/>
<path d="M181.806 89.7749C166.172 91.2093 151.328 99.4749 137.544 106.491C130.306 110.175 123.269 114.087 115.853 117.434C108.747 120.641 101.481 123.712 94.0531 126.084C85.5687 128.791 76.7219 130.191 68.2875 132.966C68.0437 133.044 68.1875 133.791 68.4344 133.806C76.1781 134.322 84.0531 131.519 91.325 129.15C98.7156 126.747 106.066 124.247 113.2 121.162C127.741 114.881 141.809 107.544 156.387 101.347C164.847 97.7499 173.578 94.8718 182.1 91.4593C182.512 91.2937 182.256 89.7343 181.806 89.7749Z" fill="#BB6648"/>
</svg>
