<svg width="40" height="40" viewBox="0 0 40 40" fill="none" xmlns="http://www.w3.org/2000/svg">
<g clip-path="url(#clip0_203_31)">
<path d="M27.375 4.375C22.5906 4.375 18.7 8.26562 18.7 13.05C18.7 13.3375 18.7719 13.6188 18.8 13.9C12.8844 13.3344 7.65312 10.4844 4.09999 6.125C3.93437 5.91562 3.67812 5.80313 3.40937 5.82188C3.14374 5.84063 2.90624 5.99375 2.77499 6.225C2.02812 7.50938 1.59999 8.9875 1.59999 10.575C1.59999 12.4969 2.28749 14.2563 3.34999 15.7C3.14374 15.6094 2.91874 15.5594 2.72499 15.45C2.47812 15.3188 2.18124 15.325 1.94062 15.4688C1.69999 15.6125 1.55312 15.8719 1.54999 16.15V16.25C1.54999 19.1969 3.07499 21.7563 5.32499 23.325C5.29999 23.3219 5.27499 23.3313 5.24999 23.325C4.97499 23.2781 4.69687 23.375 4.51249 23.5844C4.32812 23.7938 4.26874 24.0844 4.34999 24.35C5.24374 27.1281 7.52499 29.25 10.35 30.025C8.09999 31.3625 5.49062 32.15 2.67499 32.15C2.06562 32.15 1.48124 32.1188 0.899993 32.05C0.524993 32 0.165617 32.2188 0.0406177 32.575C-0.0875073 32.9313 0.0531177 33.3281 0.374993 33.525C3.98437 35.8406 8.26874 37.2 12.875 37.2C20.3406 37.2 26.1969 34.0813 30.125 29.625C34.0531 25.1688 36.1 19.3813 36.1 13.975C36.1 13.7469 36.0812 13.525 36.075 13.3C37.5406 12.1781 38.85 10.8625 39.875 9.325C40.0781 9.02812 40.0562 8.63125 39.8219 8.35625C39.5906 8.08125 39.2 7.99688 38.875 8.15C38.4625 8.33438 37.9812 8.35312 37.55 8.5C38.1187 7.74062 38.6062 6.92188 38.9 6C39 5.68438 38.8906 5.3375 38.6312 5.13125C38.3719 4.92812 38.0094 4.90312 37.725 5.075C36.3594 5.88438 34.8469 6.45312 33.25 6.8C31.7 5.35 29.6594 4.375 27.375 4.375ZM27.375 5.975C29.4156 5.975 31.2594 6.84688 32.55 8.225C32.7437 8.425 33.0281 8.50938 33.3 8.45C34.3437 8.24375 35.3344 7.94062 36.3 7.55C35.7437 8.3 35.0562 8.94062 34.25 9.425C33.8844 9.60312 33.7125 10.025 33.8469 10.4094C33.9781 10.7906 34.3781 11.0125 34.775 10.925C35.575 10.8281 36.2875 10.5031 37.05 10.3C36.3656 11.0406 35.6156 11.7094 34.8 12.3C34.5781 12.4625 34.4562 12.725 34.475 13C34.4875 13.325 34.5 13.6469 34.5 13.975C34.5 18.975 32.5812 24.4031 28.925 28.55C25.2687 32.6969 19.9 35.6 12.875 35.6C9.68437 35.6 6.67187 34.8938 3.94999 33.65C7.32499 33.3906 10.4375 32.1969 12.95 30.225C13.2125 30.0156 13.3156 29.6656 13.2094 29.3469C13.1031 29.0281 12.8094 28.8094 12.475 28.8C9.83749 28.7531 7.62812 27.2188 6.44999 25.05C6.49374 25.05 6.53124 25.05 6.57499 25.05C7.36562 25.05 8.14687 24.95 8.87499 24.75C9.22499 24.6469 9.46562 24.3219 9.45312 23.9563C9.44062 23.5906 9.18124 23.2781 8.82499 23.2C5.97812 22.625 3.84374 20.3063 3.34999 17.425C4.15624 17.7031 4.98124 17.9219 5.87499 17.95C6.24062 17.9719 6.57187 17.7438 6.68437 17.3969C6.79687 17.05 6.65937 16.6688 6.34999 16.475C4.44999 15.2031 3.19999 13.0375 3.19999 10.575C3.19999 9.6625 3.43749 8.825 3.74999 8.025C7.74999 12.4156 13.35 15.3313 19.675 15.65C19.925 15.6625 20.1687 15.5594 20.3312 15.3688C20.4937 15.175 20.5562 14.9188 20.5 14.675C20.3781 14.1563 20.3 13.6063 20.3 13.05C20.3 9.13125 23.4562 5.975 27.375 5.975Z" fill="#FBE3B7"/>
</g>
<defs>
<clipPath id="clip0_203_31">
<rect width="40" height="40" fill="white"/>
</clipPath>
</defs>
</svg>
